{
    "asset" : {
        "generator" : "Khronos glTF Blender I/O v3.4.50",
        "version" : "2.0"
    },
    "scene" : 0,
    "scenes" : [
        {
            "name" : "Scene",
            "nodes" : [
                0
            ]
        }
    ],
    "nodes" : [
        {
            "mesh" : 0,
            "name" : "Cylinder",
            "translation" : [
                0,
                -0.2747046947479248,
                0
            ]
        }
    ],
    "materials" : [
        {
            "doubleSided" : true,
            "name" : "Material.001",
            "pbrMetallicRoughness" : {
                "baseColorFactor" : [
                    0.042284153401851654,
                    0.20162415504455566,
                    0.021910352632403374,
                    1
                ],
                "metallicFactor" : 0,
                "roughnessFactor" : 0.5
            }
        }
    ],
    "meshes" : [
        {
            "name" : "Cylinder",
            "primitives" : [
                {
                    "attributes" : {
                        "POSITION" : 0,
                        "TEXCOORD_0" : 1,
                        "NORMAL" : 2
                    },
                    "indices" : 3,
                    "material" : 0
                }
            ]
        }
    ],
    "accessors" : [
        {
            "bufferView" : 0,
            "componentType" : 5126,
            "count" : 608,
            "max" : [
                0.19656649231910706,
                0.8230000138282776,
                0.19248369336128235
            ],
            "min" : [
                -0.1948452740907669,
                -0.41837194561958313,
                -0.1967839002609253
            ],
            "type" : "VEC3"
        },
        {
            "bufferView" : 1,
            "componentType" : 5126,
            "count" : 608,
            "type" : "VEC2"
        },
        {
            "bufferView" : 2,
            "componentType" : 5126,
            "count" : 608,
            "type" : "VEC3"
        },
        {
            "bufferView" : 3,
            "componentType" : 5123,
            "count" : 1890,
            "type" : "SCALAR"
        }
    ],
    "bufferViews" : [
        {
            "buffer" : 0,
            "byteLength" : 7296,
            "byteOffset" : 0,
            "target" : 34962
        },
        {
            "buffer" : 0,
            "byteLength" : 4864,
            "byteOffset" : 7296,
            "target" : 34962
        },
        {
            "buffer" : 0,
            "byteLength" : 7296,
            "byteOffset" : 12160,
            "target" : 34962
        },
        {
            "buffer" : 0,
            "byteLength" : 3780,
            "byteOffset" : 19456,
            "target" : 34963
        }
    ],
    "buffers" : [
        {
            "byteLength" : 23236,
            "uri" : "data:application/octet-stream;base64,"
        }
    ]
}
