{
	"asset":{
		"generator":"Khronos glTF Blender I/O v4.1.63",
		"version":"2.0"
	},
	"scene":0,
	"scenes":[
		{
			"name":"Scene",
			"nodes":[
				0
			]
		}
	],
	"nodes":[
		{
			"mesh":0,
			"name":"Pencil"
		}
	],
	"materials":[
		{
			"doubleSided":true,
			"name":"BluePencil",
			"pbrMetallicRoughness":{
				"baseColorFactor":[
					0.0016725067980587482,
					0,
					0.22186735272407532,
					1
				],
				"metallicFactor":0,
				"roughnessFactor":0.5
			}
		},
		{
			"doubleSided":true,
			"name":"PencilTip",
			"pbrMetallicRoughness":{
				"baseColorFactor":[
					0,
					0,
					0,
					1
				],
				"metallicFactor":0,
				"roughnessFactor":0.5
			}
		},
		{
			"doubleSided":true,
			"name":"PnecilWood",
			"pbrMetallicRoughness":{
				"baseColorFactor":[
					0.3726966381072998,
					0.26935362815856934,
					0.13471761345863342,
					1
				],
				"metallicFactor":0,
				"roughnessFactor":0.5
			}
		},
		{
			"doubleSided":true,
			"name":"Rub",
			"pbrMetallicRoughness":{
				"baseColorFactor":[
					0.7045779228210449,
					0.01017824001610279,
					0.056457944214344025,
					1
				],
				"metallicFactor":0,
				"roughnessFactor":0.5
			}
		},
		{
			"doubleSided":true,
			"name":"MiddlePartPencil",
			"pbrMetallicRoughness":{
				"baseColorFactor":[
					0.25655487179756165,
					0.20846916735172272,
					0.24122601747512817,
					1
				],
				"metallicFactor":0,
				"roughnessFactor":0.5
			}
		}
	],
	"meshes":[
		{
			"name":"Cylinder.001",
			"primitives":[
				{
					"attributes":{
						"POSITION":0,
						"NORMAL":1,
						"TEXCOORD_0":2
					},
					"indices":3,
					"material":0
				},
				{
					"attributes":{
						"POSITION":4,
						"NORMAL":5,
						"TEXCOORD_0":6
					},
					"indices":7,
					"material":1
				},
				{
					"attributes":{
						"POSITION":8,
						"NORMAL":9,
						"TEXCOORD_0":10
					},
					"indices":11,
					"material":2
				},
				{
					"attributes":{
						"POSITION":12,
						"NORMAL":13,
						"TEXCOORD_0":14
					},
					"indices":15,
					"material":3
				},
				{
					"attributes":{
						"POSITION":16,
						"NORMAL":17,
						"TEXCOORD_0":18
					},
					"indices":19,
					"material":4
				}
			]
		}
	],
	"accessors":[
		{
			"bufferView":0,
			"componentType":5126,
			"count":18,
			"max":[
				1,
				2.9927127361297607,
				1
			],
			"min":[
				-1,
				-2.835775852203369,
				-1
			],
			"type":"VEC3"
		},
		{
			"bufferView":1,
			"componentType":5126,
			"count":18,
			"type":"VEC3"
		},
		{
			"bufferView":2,
			"componentType":5126,
			"count":18,
			"type":"VEC2"
		},
		{
			"bufferView":3,
			"componentType":5123,
			"count":48,
			"type":"SCALAR"
		},
		{
			"bufferView":4,
			"componentType":5126,
			"count":24,
			"max":[
				0.5,
				4.955847263336182,
				0.5
			],
			"min":[
				-0.5,
				3.9742798805236816,
				-0.5
			],
			"type":"VEC3"
		},
		{
			"bufferView":5,
			"componentType":5126,
			"count":24,
			"type":"VEC3"
		},
		{
			"bufferView":6,
			"componentType":5126,
			"count":24,
			"type":"VEC2"
		},
		{
			"bufferView":7,
			"componentType":5123,
			"count":24,
			"type":"SCALAR"
		},
		{
			"bufferView":8,
			"componentType":5126,
			"count":25,
			"max":[
				1,
				3.9742798805236816,
				1
			],
			"min":[
				-1,
				2.9927127361297607,
				-1
			],
			"type":"VEC3"
		},
		{
			"bufferView":9,
			"componentType":5126,
			"count":25,
			"type":"VEC3"
		},
		{
			"bufferView":10,
			"componentType":5126,
			"count":25,
			"type":"VEC2"
		},
		{
			"bufferView":11,
			"componentType":5123,
			"count":48,
			"type":"SCALAR"
		},
		{
			"bufferView":12,
			"componentType":5126,
			"count":59,
			"max":[
				0.9399428963661194,
				-3.1496496200561523,
				0.9399428963661194
			],
			"min":[
				-0.9399428963661194,
				-4.284511089324951,
				-0.9399428963661194
			],
			"type":"VEC3"
		},
		{
			"bufferView":13,
			"componentType":5126,
			"count":59,
			"type":"VEC3"
		},
		{
			"bufferView":14,
			"componentType":5126,
			"count":59,
			"type":"VEC2"
		},
		{
			"bufferView":15,
			"componentType":5123,
			"count":186,
			"type":"SCALAR"
		},
		{
			"bufferView":16,
			"componentType":5126,
			"count":27,
			"max":[
				1,
				-2.835775852203369,
				1
			],
			"min":[
				-1,
				-3.1496496200561523,
				-1
			],
			"type":"VEC3"
		},
		{
			"bufferView":17,
			"componentType":5126,
			"count":27,
			"type":"VEC3"
		},
		{
			"bufferView":18,
			"componentType":5126,
			"count":27,
			"type":"VEC2"
		},
		{
			"bufferView":19,
			"componentType":5123,
			"count":72,
			"type":"SCALAR"
		}
	],
	"bufferViews":[
		{
			"buffer":0,
			"byteLength":216,
			"byteOffset":0,
			"target":34962
		},
		{
			"buffer":0,
			"byteLength":216,
			"byteOffset":216,
			"target":34962
		},
		{
			"buffer":0,
			"byteLength":144,
			"byteOffset":432,
			"target":34962
		},
		{
			"buffer":0,
			"byteLength":96,
			"byteOffset":576,
			"target":34963
		},
		{
			"buffer":0,
			"byteLength":288,
			"byteOffset":672,
			"target":34962
		},
		{
			"buffer":0,
			"byteLength":288,
			"byteOffset":960,
			"target":34962
		},
		{
			"buffer":0,
			"byteLength":192,
			"byteOffset":1248,
			"target":34962
		},
		{
			"buffer":0,
			"byteLength":48,
			"byteOffset":1440,
			"target":34963
		},
		{
			"buffer":0,
			"byteLength":300,
			"byteOffset":1488,
			"target":34962
		},
		{
			"buffer":0,
			"byteLength":300,
			"byteOffset":1788,
			"target":34962
		},
		{
			"buffer":0,
			"byteLength":200,
			"byteOffset":2088,
			"target":34962
		},
		{
			"buffer":0,
			"byteLength":96,
			"byteOffset":2288,
			"target":34963
		},
		{
			"buffer":0,
			"byteLength":708,
			"byteOffset":2384,
			"target":34962
		},
		{
			"buffer":0,
			"byteLength":708,
			"byteOffset":3092,
			"target":34962
		},
		{
			"buffer":0,
			"byteLength":472,
			"byteOffset":3800,
			"target":34962
		},
		{
			"buffer":0,
			"byteLength":372,
			"byteOffset":4272,
			"target":34963
		},
		{
			"buffer":0,
			"byteLength":324,
			"byteOffset":4644,
			"target":34962
		},
		{
			"buffer":0,
			"byteLength":324,
			"byteOffset":4968,
			"target":34962
		},
		{
			"buffer":0,
			"byteLength":216,
			"byteOffset":5292,
			"target":34962
		},
		{
			"buffer":0,
			"byteLength":144,
			"byteOffset":5508,
			"target":34963
		}
	],
	"buffers":[
		{
			"byteLength":5652,
			"uri":"pencil.bin"
		}
	]
}
