{
	"asset":{
		"generator":"Khronos glTF Blender I/O v4.1.63",
		"version":"2.0"
	},
	"scene":0,
	"scenes":[
		{
			"name":"Scene",
			"nodes":[
				0
			]
		}
	],
	"nodes":[
		{
			"mesh":0,
			"name":"Vert.023"
		}
	],
	"materials":[
		{
			"doubleSided":true,
			"name":"Material.019",
			"pbrMetallicRoughness":{
				"baseColorFactor":[
					0.17443831264972687,
					0.00839904509484768,
					0.8003931045532227,
					1
				],
				"metallicFactor":0,
				"roughnessFactor":0.5
			}
		},
		{
			"doubleSided":true,
			"name":"Material.018",
			"pbrMetallicRoughness":{
				"baseColorFactor":[
					0.1465095728635788,
					0.8002911806106567,
					0.6449452638626099,
					1
				],
				"metallicFactor":0,
				"roughnessFactor":0.5
			}
		},
		{
			"doubleSided":true,
			"name":"Material.021",
			"pbrMetallicRoughness":{
				"baseColorFactor":[
					0.8001416921615601,
					0.6898157000541687,
					0.022849641740322113,
					1
				],
				"metallicFactor":0,
				"roughnessFactor":0.5
			}
		},
		{
			"doubleSided":true,
			"name":"Material.020",
			"pbrMetallicRoughness":{
				"baseColorFactor":[
					0.49169349670410156,
					0.05530792474746704,
					0.8001017570495605,
					1
				],
				"metallicFactor":0,
				"roughnessFactor":0.5
			}
		}
	],
	"meshes":[
		{
			"name":"Vert.047",
			"primitives":[
				{
					"attributes":{
						"POSITION":0,
						"NORMAL":1,
						"TEXCOORD_0":2
					},
					"indices":3,
					"material":0
				},
				{
					"attributes":{
						"POSITION":4,
						"NORMAL":5,
						"TEXCOORD_0":6
					},
					"indices":7,
					"material":1
				},
				{
					"attributes":{
						"POSITION":8,
						"NORMAL":9,
						"TEXCOORD_0":10
					},
					"indices":11,
					"material":2
				},
				{
					"attributes":{
						"POSITION":12,
						"NORMAL":13,
						"TEXCOORD_0":14
					},
					"indices":15,
					"material":3
				}
			]
		}
	],
	"accessors":[
		{
			"bufferView":0,
			"componentType":5126,
			"count":438,
			"max":[
				0.5392313003540039,
				1.1605663299560547,
				0.028334759175777435
			],
			"min":[
				0.10064112395048141,
				0.00774034857749939,
				-0.028526637703180313
			],
			"type":"VEC3"
		},
		{
			"bufferView":1,
			"componentType":5126,
			"count":438,
			"type":"VEC3"
		},
		{
			"bufferView":2,
			"componentType":5126,
			"count":438,
			"type":"VEC2"
		},
		{
			"bufferView":3,
			"componentType":5123,
			"count":1464,
			"type":"SCALAR"
		},
		{
			"bufferView":4,
			"componentType":5126,
			"count":432,
			"max":[
				0.07519778609275818,
				1.9869681596755981,
				0.7902483940124512
			],
			"min":[
				-0.022741887718439102,
				0.0013081133365631104,
				0.03480830788612366
			],
			"type":"VEC3"
		},
		{
			"bufferView":5,
			"componentType":5126,
			"count":432,
			"type":"VEC3"
		},
		{
			"bufferView":6,
			"componentType":5126,
			"count":432,
			"type":"VEC2"
		},
		{
			"bufferView":7,
			"componentType":5123,
			"count":1464,
			"type":"SCALAR"
		},
		{
			"bufferView":8,
			"componentType":5126,
			"count":431,
			"max":[
				-0.12800611555576324,
				1.1605663299560547,
				0.05050019174814224
			],
			"min":[
				-0.5646742582321167,
				0.00774034857749939,
				-0.034300610423088074
			],
			"type":"VEC3"
		},
		{
			"bufferView":9,
			"componentType":5126,
			"count":431,
			"type":"VEC3"
		},
		{
			"bufferView":10,
			"componentType":5126,
			"count":431,
			"type":"VEC2"
		},
		{
			"bufferView":11,
			"componentType":5123,
			"count":1464,
			"type":"SCALAR"
		},
		{
			"bufferView":12,
			"componentType":5126,
			"count":441,
			"max":[
				0.06455051153898239,
				1.5475502014160156,
				-0.06700645387172699
			],
			"min":[
				-0.01209462434053421,
				-0.006377473473548889,
				-0.658194899559021
			],
			"type":"VEC3"
		},
		{
			"bufferView":13,
			"componentType":5126,
			"count":441,
			"type":"VEC3"
		},
		{
			"bufferView":14,
			"componentType":5126,
			"count":441,
			"type":"VEC2"
		},
		{
			"bufferView":15,
			"componentType":5123,
			"count":1464,
			"type":"SCALAR"
		}
	],
	"bufferViews":[
		{
			"buffer":0,
			"byteLength":5256,
			"byteOffset":0,
			"target":34962
		},
		{
			"buffer":0,
			"byteLength":5256,
			"byteOffset":5256,
			"target":34962
		},
		{
			"buffer":0,
			"byteLength":3504,
			"byteOffset":10512,
			"target":34962
		},
		{
			"buffer":0,
			"byteLength":2928,
			"byteOffset":14016,
			"target":34963
		},
		{
			"buffer":0,
			"byteLength":5184,
			"byteOffset":16944,
			"target":34962
		},
		{
			"buffer":0,
			"byteLength":5184,
			"byteOffset":22128,
			"target":34962
		},
		{
			"buffer":0,
			"byteLength":3456,
			"byteOffset":27312,
			"target":34962
		},
		{
			"buffer":0,
			"byteLength":2928,
			"byteOffset":30768,
			"target":34963
		},
		{
			"buffer":0,
			"byteLength":5172,
			"byteOffset":33696,
			"target":34962
		},
		{
			"buffer":0,
			"byteLength":5172,
			"byteOffset":38868,
			"target":34962
		},
		{
			"buffer":0,
			"byteLength":3448,
			"byteOffset":44040,
			"target":34962
		},
		{
			"buffer":0,
			"byteLength":2928,
			"byteOffset":47488,
			"target":34963
		},
		{
			"buffer":0,
			"byteLength":5292,
			"byteOffset":50416,
			"target":34962
		},
		{
			"buffer":0,
			"byteLength":5292,
			"byteOffset":55708,
			"target":34962
		},
		{
			"buffer":0,
			"byteLength":3528,
			"byteOffset":61000,
			"target":34962
		},
		{
			"buffer":0,
			"byteLength":2928,
			"byteOffset":64528,
			"target":34963
		}
	],
	"buffers":[
		{
			"byteLength":67456,
			"uri":"Deko_koralle1.bin"
		}
	]
}
