{
	"asset":{
		"generator":"Khronos glTF Blender I/O v4.1.63",
		"version":"2.0"
	},
	"scene":0,
	"scenes":[
		{
			"name":"Scene",
			"nodes":[
				0
			]
		}
	],
	"nodes":[
		{
			"mesh":0,
			"name":"Circle.010"
		}
	],
	"materials":[
		{
			"doubleSided":true,
			"name":"Hauptkoralle",
			"pbrMetallicRoughness":{
				"baseColorTexture":{
					"index":0
				},
				"metallicFactor":0,
				"roughnessFactor":0.5
			}
		}
	],
	"meshes":[
		{
			"name":"Circle.019",
			"primitives":[
				{
					"attributes":{
						"POSITION":0,
						"NORMAL":1,
						"TEXCOORD_0":2
					},
					"indices":3,
					"material":0
				}
			]
		}
	],
	"textures":[
		{
			"sampler":0,
			"source":0
		}
	],
	"images":[
		{
			"mimeType":"image/png",
			"name":"Hauptkoralle",
			"uri":"Hauptkoralle.png"
		}
	],
	"accessors":[
		{
			"bufferView":0,
			"componentType":5126,
			"count":65347,
			"max":[
				0.6696351766586304,
				1.119791865348816,
				1.313019037246704
			],
			"min":[
				-0.9997574090957642,
				-0.0008842200040817261,
				-1.4498673677444458
			],
			"type":"VEC3"
		},
		{
			"bufferView":1,
			"componentType":5126,
			"count":65347,
			"type":"VEC3"
		},
		{
			"bufferView":2,
			"componentType":5126,
			"count":65347,
			"type":"VEC2"
		},
		{
			"bufferView":3,
			"componentType":5123,
			"count":198435,
			"type":"SCALAR"
		}
	],
	"bufferViews":[
		{
			"buffer":0,
			"byteLength":784164,
			"byteOffset":0,
			"target":34962
		},
		{
			"buffer":0,
			"byteLength":784164,
			"byteOffset":784164,
			"target":34962
		},
		{
			"buffer":0,
			"byteLength":522776,
			"byteOffset":1568328,
			"target":34962
		},
		{
			"buffer":0,
			"byteLength":396870,
			"byteOffset":2091104,
			"target":34963
		}
	],
	"samplers":[
		{
			"magFilter":9729,
			"minFilter":9987
		}
	],
	"buffers":[
		{
			"byteLength":2487976,
			"uri":"Hauptkoralle.bin"
		}
	]
}
