{
	"asset":{
		"generator":"Khronos glTF Blender I/O v4.1.63",
		"version":"2.0"
	},
	"scene":0,
	"scenes":[
		{
			"name":"Scene",
			"nodes":[
				0,
				1
			]
		}
	],
	"nodes":[
		{
			"mesh":0,
			"name":"Cube",
			"scale":[
				36.530059814453125,
				1,
				50.543766021728516
			],
			"translation":[
				0,
				36.312931060791016,
				83.64888763427734
			]
		},
		{
			"mesh":1,
			"name":"Cube.001",
			"scale":[
				75.01106262207031,
				11.972771644592285,
				1.4584102630615234
			],
			"translation":[
				3.992800712585449,
				48.128692626953125,
				132.49423217773438
			]
		}
	],
	"materials":[
		{
			"doubleSided":true,
			"name":"Material.001",
			"pbrMetallicRoughness":{
				"metallicFactor":0
			}
		},
		{
			"doubleSided":true,
			"name":"Stonegrey",
			"pbrMetallicRoughness":{
				"metallicFactor":0
			}
		}
	],
	"meshes":[
		{
			"name":"Cube",
			"primitives":[
				{
					"attributes":{
						"POSITION":0,
						"NORMAL":1,
						"TEXCOORD_0":2
					},
					"indices":3,
					"material":0
				}
			]
		},
		{
			"name":"Cube.001",
			"primitives":[
				{
					"attributes":{
						"POSITION":4,
						"NORMAL":5,
						"TEXCOORD_0":6
					},
					"indices":7,
					"material":1
				}
			]
		}
	],
	"accessors":[
		{
			"bufferView":0,
			"componentType":5126,
			"count":79,
			"max":[
				2.061636447906494,
				0.0015091896057128906,
				1
			],
			"min":[
				-2.269016742706299,
				-57.71808624267578,
				-1.637376308441162
			],
			"type":"VEC3"
		},
		{
			"bufferView":1,
			"componentType":5126,
			"count":79,
			"type":"VEC3"
		},
		{
			"bufferView":2,
			"componentType":5126,
			"count":79,
			"type":"VEC2"
		},
		{
			"bufferView":3,
			"componentType":5123,
			"count":129,
			"type":"SCALAR"
		},
		{
			"bufferView":4,
			"componentType":5126,
			"count":310,
			"max":[
				1.0003173351287842,
				1.014499306678772,
				1
			],
			"min":[
				-1.0000941753387451,
				-3.9913625717163086,
				-7.04471492767334
			],
			"type":"VEC3"
		},
		{
			"bufferView":5,
			"componentType":5126,
			"count":310,
			"type":"VEC3"
		},
		{
			"bufferView":6,
			"componentType":5126,
			"count":310,
			"type":"VEC2"
		},
		{
			"bufferView":7,
			"componentType":5123,
			"count":1341,
			"type":"SCALAR"
		}
	],
	"bufferViews":[
		{
			"buffer":0,
			"byteLength":948,
			"byteOffset":0,
			"target":34962
		},
		{
			"buffer":0,
			"byteLength":948,
			"byteOffset":948,
			"target":34962
		},
		{
			"buffer":0,
			"byteLength":632,
			"byteOffset":1896,
			"target":34962
		},
		{
			"buffer":0,
			"byteLength":258,
			"byteOffset":2528,
			"target":34963
		},
		{
			"buffer":0,
			"byteLength":3720,
			"byteOffset":2788,
			"target":34962
		},
		{
			"buffer":0,
			"byteLength":3720,
			"byteOffset":6508,
			"target":34962
		},
		{
			"buffer":0,
			"byteLength":2480,
			"byteOffset":10228,
			"target":34962
		},
		{
			"buffer":0,
			"byteLength":2682,
			"byteOffset":12708,
			"target":34963
		}
	],
	"buffers":[
		{
			"byteLength":15392,
			"uri":"Level_firstdraf.bin"
		}
	]
}
