{
	"asset":{
		"generator":"Khronos glTF Blender I/O v4.1.63",
		"version":"2.0"
	},
	"scene":0,
	"scenes":[
		{
			"name":"Scene",
			"nodes":[
				0
			]
		}
	],
	"nodes":[
		{
			"mesh":0,
			"name":"Sphere"
		}
	],
	"materials":[
		{
			"doubleSided":true,
			"name":"seestern_rosa",
			"pbrMetallicRoughness":{
				"baseColorFactor":[
					0.8000315427780151,
					0.46248549222946167,
					0.5156043767929077,
					1
				],
				"metallicFactor":0,
				"roughnessFactor":0.5
			}
		},
		{
			"doubleSided":true,
			"name":"seestern_orange",
			"pbrMetallicRoughness":{
				"baseColorFactor":[
					0.44991105794906616,
					0.1561073660850525,
					0.04482017084956169,
					1
				],
				"metallicFactor":0
			}
		}
	],
	"meshes":[
		{
			"name":"Sphere.001",
			"primitives":[
				{
					"attributes":{
						"POSITION":0,
						"NORMAL":1,
						"TEXCOORD_0":2
					},
					"indices":3,
					"material":0
				},
				{
					"attributes":{
						"POSITION":4,
						"NORMAL":5,
						"TEXCOORD_0":6
					},
					"indices":7,
					"material":1
				}
			]
		}
	],
	"accessors":[
		{
			"bufferView":0,
			"componentType":5126,
			"count":567,
			"max":[
				0.3106473982334137,
				0.14892001450061798,
				0.31776922941207886
			],
			"min":[
				-0.3596499562263489,
				0.061976928263902664,
				-0.35669225454330444
			],
			"type":"VEC3"
		},
		{
			"bufferView":1,
			"componentType":5126,
			"count":567,
			"type":"VEC3"
		},
		{
			"bufferView":2,
			"componentType":5126,
			"count":567,
			"type":"VEC2"
		},
		{
			"bufferView":3,
			"componentType":5123,
			"count":2142,
			"type":"SCALAR"
		},
		{
			"bufferView":4,
			"componentType":5126,
			"count":286,
			"max":[
				0.4759647846221924,
				0.138893261551857,
				0.5570619702339172
			],
			"min":[
				-0.5855796337127686,
				0.0009133070707321167,
				-0.5591118335723877
			],
			"type":"VEC3"
		},
		{
			"bufferView":5,
			"componentType":5126,
			"count":286,
			"type":"VEC3"
		},
		{
			"bufferView":6,
			"componentType":5126,
			"count":286,
			"type":"VEC2"
		},
		{
			"bufferView":7,
			"componentType":5123,
			"count":1704,
			"type":"SCALAR"
		}
	],
	"bufferViews":[
		{
			"buffer":0,
			"byteLength":6804,
			"byteOffset":0,
			"target":34962
		},
		{
			"buffer":0,
			"byteLength":6804,
			"byteOffset":6804,
			"target":34962
		},
		{
			"buffer":0,
			"byteLength":4536,
			"byteOffset":13608,
			"target":34962
		},
		{
			"buffer":0,
			"byteLength":4284,
			"byteOffset":18144,
			"target":34963
		},
		{
			"buffer":0,
			"byteLength":3432,
			"byteOffset":22428,
			"target":34962
		},
		{
			"buffer":0,
			"byteLength":3432,
			"byteOffset":25860,
			"target":34962
		},
		{
			"buffer":0,
			"byteLength":2288,
			"byteOffset":29292,
			"target":34962
		},
		{
			"buffer":0,
			"byteLength":3408,
			"byteOffset":31580,
			"target":34963
		}
	],
	"buffers":[
		{
			"byteLength":34988,
			"uri":"Seestern.bin"
		}
	]
}
