{
	"asset":{
		"generator":"Khronos glTF Blender I/O v4.1.63",
		"version":"2.0"
	},
	"scene":0,
	"scenes":[
		{
			"name":"Scene",
			"nodes":[
				0
			]
		}
	],
	"nodes":[
		{
			"mesh":0,
			"name":"Cylinder.001",
			"rotation":[
				-0.09557846188545227,
				0,
				-0.12875103950500488,
				0.9870602488517761
			],
			"translation":[
				0.30536705255508423,
				1.796398639678955,
				-0.1903662234544754
			]
		}
	],
	"materials":[
		{
			"doubleSided":true,
			"name":"Material.007",
			"pbrMetallicRoughness":{
				"baseColorFactor":[
					0.07481472194194794,
					0.07481472194194794,
					0.07481472194194794,
					1
				],
				"metallicFactor":0,
				"roughnessFactor":0.5
			}
		},
		{
			"doubleSided":true,
			"name":"black",
			"pbrMetallicRoughness":{
				"baseColorFactor":[
					0,
					0,
					0,
					1
				],
				"metallicFactor":0
			}
		}
	],
	"meshes":[
		{
			"name":"Cylinder.001",
			"primitives":[
				{
					"attributes":{
						"POSITION":0,
						"NORMAL":1,
						"TEXCOORD_0":2
					},
					"indices":3,
					"material":0
				},
				{
					"attributes":{
						"POSITION":4,
						"NORMAL":5,
						"TEXCOORD_0":6
					},
					"indices":7,
					"material":1
				}
			]
		}
	],
	"accessors":[
		{
			"bufferView":0,
			"componentType":5126,
			"count":7500,
			"max":[
				2.057096242904663,
				1.1997404098510742,
				2.1914844512939453
			],
			"min":[
				-2.1842598915100098,
				-2.3358702659606934,
				-2.1673150062561035
			],
			"type":"VEC3"
		},
		{
			"bufferView":1,
			"componentType":5126,
			"count":7500,
			"type":"VEC3"
		},
		{
			"bufferView":2,
			"componentType":5126,
			"count":7500,
			"type":"VEC2"
		},
		{
			"bufferView":3,
			"componentType":5123,
			"count":12600,
			"type":"SCALAR"
		},
		{
			"bufferView":4,
			"componentType":5126,
			"count":114,
			"max":[
				0.9000372886657715,
				1.1920928955078125e-07,
				0.995002031326294
			],
			"min":[
				-1.0336554050445557,
				-2.0149693489074707,
				-0.9684569835662842
			],
			"type":"VEC3"
		},
		{
			"bufferView":5,
			"componentType":5126,
			"count":114,
			"type":"VEC3"
		},
		{
			"bufferView":6,
			"componentType":5126,
			"count":114,
			"type":"VEC2"
		},
		{
			"bufferView":7,
			"componentType":5123,
			"count":498,
			"type":"SCALAR"
		}
	],
	"bufferViews":[
		{
			"buffer":0,
			"byteLength":90000,
			"byteOffset":0,
			"target":34962
		},
		{
			"buffer":0,
			"byteLength":90000,
			"byteOffset":90000,
			"target":34962
		},
		{
			"buffer":0,
			"byteLength":60000,
			"byteOffset":180000,
			"target":34962
		},
		{
			"buffer":0,
			"byteLength":25200,
			"byteOffset":240000,
			"target":34963
		},
		{
			"buffer":0,
			"byteLength":1368,
			"byteOffset":265200,
			"target":34962
		},
		{
			"buffer":0,
			"byteLength":1368,
			"byteOffset":266568,
			"target":34962
		},
		{
			"buffer":0,
			"byteLength":912,
			"byteOffset":267936,
			"target":34962
		},
		{
			"buffer":0,
			"byteLength":996,
			"byteOffset":268848,
			"target":34963
		}
	],
	"buffers":[
		{
			"byteLength":269844,
			"uri":"Seeigel.bin"
		}
	]
}
