{
	"asset":{
		"generator":"Khronos glTF Blender I/O v4.0.44",
		"version":"2.0"
	},
	"scene":0,
	"scenes":[
		{
			"name":"Scene",
			"nodes":[
				0
			]
		}
	],
	"nodes":[
		{
			"mesh":0,
			"name":"Hub_koralle"
		}
	],
	"materials":[
		{
			"doubleSided":true,
			"name":"Korallen_pink",
			"pbrMetallicRoughness":{
				"baseColorFactor":[
					0.8001565933227539,
					0.03184335678815842,
					0.5866701006889343,
					1
				],
				"metallicFactor":0
			}
		}
	],
	"meshes":[
		{
			"name":"Vert.004",
			"primitives":[
				{
					"attributes":{
						"POSITION":0,
						"NORMAL":1
					},
					"indices":2,
					"material":0
				}
			]
		}
	],
	"accessors":[
		{
			"bufferView":0,
			"componentType":5126,
			"count":1050,
			"max":[
				4.255721092224121,
				8.31453800201416,
				4.7691826820373535
			],
			"min":[
				-4.196249485015869,
				-0.09075403213500977,
				-3.5413506031036377
			],
			"type":"VEC3"
		},
		{
			"bufferView":1,
			"componentType":5126,
			"count":1050,
			"type":"VEC3"
		},
		{
			"bufferView":2,
			"componentType":5123,
			"count":6261,
			"type":"SCALAR"
		}
	],
	"bufferViews":[
		{
			"buffer":0,
			"byteLength":12600,
			"byteOffset":0,
			"target":34962
		},
		{
			"buffer":0,
			"byteLength":12600,
			"byteOffset":12600,
			"target":34962
		},
		{
			"buffer":0,
			"byteLength":12522,
			"byteOffset":25200,
			"target":34963
		}
	],
	"buffers":[
		{
			"byteLength":37724,
			"uri":"Hub_koralle.bin"
		}
	]
}
