{
	"asset":{
		"generator":"Khronos glTF Blender I/O v4.1.63",
		"version":"2.0"
	},
	"scene":0,
	"scenes":[
		{
			"name":"Scene",
			"nodes":[
				6
			]
		}
	],
	"nodes":[
		{
			"name":"Bone.003",
			"rotation":[
				-0.11756358295679092,
				3.1889758389525014e-08,
				-0.0008890361059457064,
				0.9930649995803833
			],
			"scale":[
				0.9999998211860657,
				1,
				1
			],
			"translation":[
				9.767245501279831e-08,
				1.0697141885757446,
				-2.5227200239896774e-07
			]
		},
		{
			"children":[
				0
			],
			"name":"Bone.002",
			"rotation":[
				-0.6589170694351196,
				6.19066520268774e-10,
				-0.004982725251466036,
				0.752199113368988
			],
			"scale":[
				1,
				0.9999999403953552,
				1.0000001192092896
			],
			"translation":[
				5.459878593683243e-08,
				1.0536112785339355,
				-2.8870999813079834e-08
			]
		},
		{
			"children":[
				1
			],
			"name":"Bone.001",
			"rotation":[
				-0.5454950332641602,
				-0.0041856165044009686,
				0.04422804340720177,
				0.8369358777999878
			],
			"scale":[
				1,
				0.9999999403953552,
				1
			],
			"translation":[
				4.0745362639427185e-09,
				1.148786187171936,
				-1.6518242773599923e-08
			]
		},
		{
			"children":[
				2
			],
			"name":"Bone",
			"rotation":[
				0.08913986384868622,
				2.0022864191560075e-05,
				0.0036799167282879353,
				0.9960123896598816
			],
			"scale":[
				0.9999999403953552,
				0.9999998211860657,
				0.9999998807907104
			],
			"translation":[
				0,
				-5.364418029785156e-07,
				-1.4901161193847656e-08
			]
		},
		{
			"name":"neutral_bone",
			"rotation":[
				-0.7071067690849304,
				0,
				0,
				0.7071067690849304
			]
		},
		{
			"mesh":0,
			"name":"Cube.001",
			"skin":0
		},
		{
			"children":[
				5,
				3,
				4
			],
			"name":"Seepferdchen",
			"rotation":[
				0.07449247688055038,
				0,
				0,
				0.9972216486930847
			],
			"scale":[
				0.5455430746078491,
				0.5455430746078491,
				0.5455430746078491
			],
			"translation":[
				0,
				2.620943546295166,
				0.2976238429546356
			]
		}
	],
	"animations":[
		{
			"channels":[
				{
					"sampler":0,
					"target":{
						"node":3,
						"path":"translation"
					}
				},
				{
					"sampler":1,
					"target":{
						"node":3,
						"path":"rotation"
					}
				},
				{
					"sampler":2,
					"target":{
						"node":3,
						"path":"scale"
					}
				},
				{
					"sampler":3,
					"target":{
						"node":2,
						"path":"translation"
					}
				},
				{
					"sampler":4,
					"target":{
						"node":2,
						"path":"rotation"
					}
				},
				{
					"sampler":5,
					"target":{
						"node":2,
						"path":"scale"
					}
				},
				{
					"sampler":6,
					"target":{
						"node":1,
						"path":"translation"
					}
				},
				{
					"sampler":7,
					"target":{
						"node":1,
						"path":"rotation"
					}
				},
				{
					"sampler":8,
					"target":{
						"node":1,
						"path":"scale"
					}
				},
				{
					"sampler":9,
					"target":{
						"node":0,
						"path":"translation"
					}
				},
				{
					"sampler":10,
					"target":{
						"node":0,
						"path":"rotation"
					}
				},
				{
					"sampler":11,
					"target":{
						"node":0,
						"path":"scale"
					}
				}
			],
			"name":"ArmatureAction",
			"samplers":[
				{
					"input":31,
					"interpolation":"STEP",
					"output":32
				},
				{
					"input":33,
					"interpolation":"LINEAR",
					"output":34
				},
				{
					"input":31,
					"interpolation":"STEP",
					"output":35
				},
				{
					"input":31,
					"interpolation":"STEP",
					"output":36
				},
				{
					"input":33,
					"interpolation":"LINEAR",
					"output":37
				},
				{
					"input":31,
					"interpolation":"STEP",
					"output":38
				},
				{
					"input":31,
					"interpolation":"STEP",
					"output":39
				},
				{
					"input":33,
					"interpolation":"LINEAR",
					"output":40
				},
				{
					"input":31,
					"interpolation":"STEP",
					"output":41
				},
				{
					"input":31,
					"interpolation":"STEP",
					"output":42
				},
				{
					"input":31,
					"interpolation":"STEP",
					"output":43
				},
				{
					"input":31,
					"interpolation":"STEP",
					"output":44
				}
			]
		}
	],
	"materials":[
		{
			"doubleSided":true,
			"name":"Seepferdchen",
			"pbrMetallicRoughness":{
				"baseColorFactor":[
					0.6369825005531311,
					0.12440259754657745,
					0.8012280464172363,
					1
				],
				"metallicFactor":0
			}
		},
		{
			"doubleSided":true,
			"name":"Black",
			"pbrMetallicRoughness":{
				"baseColorFactor":[
					0,
					0,
					0,
					1
				],
				"metallicFactor":0
			}
		},
		{
			"doubleSided":true,
			"name":"white",
			"pbrMetallicRoughness":{
				"baseColorFactor":[
					0.800000011920929,
					0.800000011920929,
					0.800000011920929,
					1
				],
				"metallicFactor":0,
				"roughnessFactor":0.5
			}
		},
		{
			"doubleSided":true,
			"name":"Fluegel",
			"pbrMetallicRoughness":{
				"baseColorFactor":[
					0.05947302654385567,
					0.8010704517364502,
					0.7624670267105103,
					1
				],
				"metallicFactor":0
			}
		},
		{
			"doubleSided":true,
			"name":"Horn",
			"pbrMetallicRoughness":{
				"baseColorFactor":[
					0.5825565457344055,
					0.3336014449596405,
					0.33769485354423523,
					1
				],
				"metallicFactor":0,
				"roughnessFactor":0.5
			}
		}
	],
	"meshes":[
		{
			"name":"Cube.001",
			"primitives":[
				{
					"attributes":{
						"POSITION":0,
						"NORMAL":1,
						"TEXCOORD_0":2,
						"JOINTS_0":3,
						"WEIGHTS_0":4
					},
					"indices":5,
					"material":0
				},
				{
					"attributes":{
						"POSITION":6,
						"NORMAL":7,
						"TEXCOORD_0":8,
						"JOINTS_0":9,
						"WEIGHTS_0":10
					},
					"indices":11,
					"material":1
				},
				{
					"attributes":{
						"POSITION":12,
						"NORMAL":13,
						"TEXCOORD_0":14,
						"JOINTS_0":15,
						"WEIGHTS_0":16
					},
					"indices":17,
					"material":2
				},
				{
					"attributes":{
						"POSITION":18,
						"NORMAL":19,
						"TEXCOORD_0":20,
						"JOINTS_0":21,
						"WEIGHTS_0":22
					},
					"indices":23,
					"material":3
				},
				{
					"attributes":{
						"POSITION":24,
						"NORMAL":25,
						"TEXCOORD_0":26,
						"JOINTS_0":27,
						"WEIGHTS_0":28
					},
					"indices":29,
					"material":4
				}
			]
		}
	],
	"skins":[
		{
			"inverseBindMatrices":30,
			"joints":[
				3,
				2,
				1,
				0,
				4
			],
			"name":"Seepferdchen"
		}
	],
	"accessors":[
		{
			"bufferView":0,
			"componentType":5126,
			"count":2178,
			"max":[
				0.6714301109313965,
				4.318206787109375,
				1.170401692390442
			],
			"min":[
				-0.6501055955886841,
				0.015912186354398727,
				-1.1586754322052002
			],
			"type":"VEC3"
		},
		{
			"bufferView":1,
			"componentType":5126,
			"count":2178,
			"type":"VEC3"
		},
		{
			"bufferView":2,
			"componentType":5126,
			"count":2178,
			"type":"VEC2"
		},
		{
			"bufferView":3,
			"componentType":5121,
			"count":2178,
			"type":"VEC4"
		},
		{
			"bufferView":4,
			"componentType":5126,
			"count":2178,
			"type":"VEC4"
		},
		{
			"bufferView":5,
			"componentType":5123,
			"count":7962,
			"type":"SCALAR"
		},
		{
			"bufferView":6,
			"componentType":5126,
			"count":116,
			"max":[
				0.648655354976654,
				3.374715805053711,
				-0.07529429346323013
			],
			"min":[
				-0.6273308396339417,
				2.7333576679229736,
				-0.986201286315918
			],
			"type":"VEC3"
		},
		{
			"bufferView":7,
			"componentType":5126,
			"count":116,
			"type":"VEC3"
		},
		{
			"bufferView":8,
			"componentType":5126,
			"count":116,
			"type":"VEC2"
		},
		{
			"bufferView":9,
			"componentType":5121,
			"count":116,
			"type":"VEC4"
		},
		{
			"bufferView":10,
			"componentType":5126,
			"count":116,
			"type":"VEC4"
		},
		{
			"bufferView":11,
			"componentType":5123,
			"count":336,
			"type":"SCALAR"
		},
		{
			"bufferView":12,
			"componentType":5126,
			"count":40,
			"max":[
				0.6195902228355408,
				3.330817699432373,
				-0.1926679015159607
			],
			"min":[
				-0.5982657074928284,
				3.238581895828247,
				-0.28272441029548645
			],
			"type":"VEC3"
		},
		{
			"bufferView":13,
			"componentType":5126,
			"count":40,
			"type":"VEC3"
		},
		{
			"bufferView":14,
			"componentType":5126,
			"count":40,
			"type":"VEC2"
		},
		{
			"bufferView":15,
			"componentType":5121,
			"count":40,
			"type":"VEC4"
		},
		{
			"bufferView":16,
			"componentType":5126,
			"count":40,
			"type":"VEC4"
		},
		{
			"bufferView":17,
			"componentType":5123,
			"count":108,
			"type":"SCALAR"
		},
		{
			"bufferView":18,
			"componentType":5126,
			"count":574,
			"max":[
				0.4304674565792084,
				2.777992010116577,
				1.1184840202331543
			],
			"min":[
				-0.3990752100944519,
				1.4135750532150269,
				-0.16499990224838257
			],
			"type":"VEC3"
		},
		{
			"bufferView":19,
			"componentType":5126,
			"count":574,
			"type":"VEC3"
		},
		{
			"bufferView":20,
			"componentType":5126,
			"count":574,
			"type":"VEC2"
		},
		{
			"bufferView":21,
			"componentType":5121,
			"count":574,
			"type":"VEC4"
		},
		{
			"bufferView":22,
			"componentType":5126,
			"count":574,
			"type":"VEC4"
		},
		{
			"bufferView":23,
			"componentType":5123,
			"count":2136,
			"type":"SCALAR"
		},
		{
			"bufferView":24,
			"componentType":5126,
			"count":50,
			"max":[
				0.16123992204666138,
				4.134479522705078,
				-0.4328525960445404
			],
			"min":[
				-0.1399153769016266,
				3.5923373699188232,
				-0.9281763434410095
			],
			"type":"VEC3"
		},
		{
			"bufferView":25,
			"componentType":5126,
			"count":50,
			"type":"VEC3"
		},
		{
			"bufferView":26,
			"componentType":5126,
			"count":50,
			"type":"VEC2"
		},
		{
			"bufferView":27,
			"componentType":5121,
			"count":50,
			"type":"VEC4"
		},
		{
			"bufferView":28,
			"componentType":5126,
			"count":50,
			"type":"VEC4"
		},
		{
			"bufferView":29,
			"componentType":5123,
			"count":72,
			"type":"SCALAR"
		},
		{
			"bufferView":30,
			"componentType":5126,
			"count":5,
			"type":"MAT4"
		},
		{
			"bufferView":31,
			"componentType":5126,
			"count":2,
			"max":[
				3.3333333333333335
			],
			"min":[
				0
			],
			"type":"SCALAR"
		},
		{
			"bufferView":32,
			"componentType":5126,
			"count":2,
			"type":"VEC3"
		},
		{
			"bufferView":33,
			"componentType":5126,
			"count":81,
			"max":[
				3.3333333333333335
			],
			"min":[
				0
			],
			"type":"SCALAR"
		},
		{
			"bufferView":34,
			"componentType":5126,
			"count":81,
			"type":"VEC4"
		},
		{
			"bufferView":35,
			"componentType":5126,
			"count":2,
			"type":"VEC3"
		},
		{
			"bufferView":36,
			"componentType":5126,
			"count":2,
			"type":"VEC3"
		},
		{
			"bufferView":37,
			"componentType":5126,
			"count":81,
			"type":"VEC4"
		},
		{
			"bufferView":38,
			"componentType":5126,
			"count":2,
			"type":"VEC3"
		},
		{
			"bufferView":39,
			"componentType":5126,
			"count":2,
			"type":"VEC3"
		},
		{
			"bufferView":40,
			"componentType":5126,
			"count":81,
			"type":"VEC4"
		},
		{
			"bufferView":41,
			"componentType":5126,
			"count":2,
			"type":"VEC3"
		},
		{
			"bufferView":42,
			"componentType":5126,
			"count":2,
			"type":"VEC3"
		},
		{
			"bufferView":43,
			"componentType":5126,
			"count":2,
			"type":"VEC4"
		},
		{
			"bufferView":44,
			"componentType":5126,
			"count":2,
			"type":"VEC3"
		}
	],
	"bufferViews":[
		{
			"buffer":0,
			"byteLength":26136,
			"byteOffset":0,
			"target":34962
		},
		{
			"buffer":0,
			"byteLength":26136,
			"byteOffset":26136,
			"target":34962
		},
		{
			"buffer":0,
			"byteLength":17424,
			"byteOffset":52272,
			"target":34962
		},
		{
			"buffer":0,
			"byteLength":8712,
			"byteOffset":69696,
			"target":34962
		},
		{
			"buffer":0,
			"byteLength":34848,
			"byteOffset":78408,
			"target":34962
		},
		{
			"buffer":0,
			"byteLength":15924,
			"byteOffset":113256,
			"target":34963
		},
		{
			"buffer":0,
			"byteLength":1392,
			"byteOffset":129180,
			"target":34962
		},
		{
			"buffer":0,
			"byteLength":1392,
			"byteOffset":130572,
			"target":34962
		},
		{
			"buffer":0,
			"byteLength":928,
			"byteOffset":131964,
			"target":34962
		},
		{
			"buffer":0,
			"byteLength":464,
			"byteOffset":132892,
			"target":34962
		},
		{
			"buffer":0,
			"byteLength":1856,
			"byteOffset":133356,
			"target":34962
		},
		{
			"buffer":0,
			"byteLength":672,
			"byteOffset":135212,
			"target":34963
		},
		{
			"buffer":0,
			"byteLength":480,
			"byteOffset":135884,
			"target":34962
		},
		{
			"buffer":0,
			"byteLength":480,
			"byteOffset":136364,
			"target":34962
		},
		{
			"buffer":0,
			"byteLength":320,
			"byteOffset":136844,
			"target":34962
		},
		{
			"buffer":0,
			"byteLength":160,
			"byteOffset":137164,
			"target":34962
		},
		{
			"buffer":0,
			"byteLength":640,
			"byteOffset":137324,
			"target":34962
		},
		{
			"buffer":0,
			"byteLength":216,
			"byteOffset":137964,
			"target":34963
		},
		{
			"buffer":0,
			"byteLength":6888,
			"byteOffset":138180,
			"target":34962
		},
		{
			"buffer":0,
			"byteLength":6888,
			"byteOffset":145068,
			"target":34962
		},
		{
			"buffer":0,
			"byteLength":4592,
			"byteOffset":151956,
			"target":34962
		},
		{
			"buffer":0,
			"byteLength":2296,
			"byteOffset":156548,
			"target":34962
		},
		{
			"buffer":0,
			"byteLength":9184,
			"byteOffset":158844,
			"target":34962
		},
		{
			"buffer":0,
			"byteLength":4272,
			"byteOffset":168028,
			"target":34963
		},
		{
			"buffer":0,
			"byteLength":600,
			"byteOffset":172300,
			"target":34962
		},
		{
			"buffer":0,
			"byteLength":600,
			"byteOffset":172900,
			"target":34962
		},
		{
			"buffer":0,
			"byteLength":400,
			"byteOffset":173500,
			"target":34962
		},
		{
			"buffer":0,
			"byteLength":200,
			"byteOffset":173900,
			"target":34962
		},
		{
			"buffer":0,
			"byteLength":800,
			"byteOffset":174100,
			"target":34962
		},
		{
			"buffer":0,
			"byteLength":144,
			"byteOffset":174900,
			"target":34963
		},
		{
			"buffer":0,
			"byteLength":320,
			"byteOffset":175044
		},
		{
			"buffer":0,
			"byteLength":8,
			"byteOffset":175364
		},
		{
			"buffer":0,
			"byteLength":24,
			"byteOffset":175372
		},
		{
			"buffer":0,
			"byteLength":324,
			"byteOffset":175396
		},
		{
			"buffer":0,
			"byteLength":1296,
			"byteOffset":175720
		},
		{
			"buffer":0,
			"byteLength":24,
			"byteOffset":177016
		},
		{
			"buffer":0,
			"byteLength":24,
			"byteOffset":177040
		},
		{
			"buffer":0,
			"byteLength":1296,
			"byteOffset":177064
		},
		{
			"buffer":0,
			"byteLength":24,
			"byteOffset":178360
		},
		{
			"buffer":0,
			"byteLength":24,
			"byteOffset":178384
		},
		{
			"buffer":0,
			"byteLength":1296,
			"byteOffset":178408
		},
		{
			"buffer":0,
			"byteLength":24,
			"byteOffset":179704
		},
		{
			"buffer":0,
			"byteLength":24,
			"byteOffset":179728
		},
		{
			"buffer":0,
			"byteLength":32,
			"byteOffset":179752
		},
		{
			"buffer":0,
			"byteLength":24,
			"byteOffset":179784
		}
	],
	"buffers":[
		{
			"byteLength":179808,
			"uri":"Seepferdchen.bin"
		}
	]
}
