{
	"asset":{
		"generator":"Khronos glTF Blender I/O v4.1.63",
		"version":"2.0"
	},
	"scene":0,
	"scenes":[
		{
			"name":"Scene",
			"nodes":[
				0
			]
		}
	],
	"nodes":[
		{
			"mesh":0,
			"name":"Cylinder.015"
		}
	],
	"materials":[
		{
			"doubleSided":true,
			"name":"dark_red",
			"pbrMetallicRoughness":{
				"baseColorFactor":[
					0.1936008632183075,
					0.009658503346145153,
					0.009658503346145153,
					1
				],
				"metallicFactor":0,
				"roughnessFactor":0.7913385629653931
			}
		},
		{
			"doubleSided":true,
			"name":"brown",
			"pbrMetallicRoughness":{
				"baseColorFactor":[
					0.5492791533470154,
					0.27396833896636963,
					0.11221873015165329,
					1
				],
				"metallicFactor":0,
				"roughnessFactor":0.6811023950576782
			}
		}
	],
	"meshes":[
		{
			"name":"Cylinder.015",
			"primitives":[
				{
					"attributes":{
						"POSITION":0,
						"NORMAL":1,
						"TEXCOORD_0":2
					},
					"indices":3,
					"material":0
				},
				{
					"attributes":{
						"POSITION":4,
						"NORMAL":5,
						"TEXCOORD_0":6
					},
					"indices":7,
					"material":1
				}
			]
		}
	],
	"accessors":[
		{
			"bufferView":0,
			"componentType":5126,
			"count":419,
			"max":[
				0.3540641963481903,
				0.609177827835083,
				0.4604398310184479
			],
			"min":[
				-0.47805240750312805,
				0.065887451171875,
				-0.3716767728328705
			],
			"type":"VEC3"
		},
		{
			"bufferView":1,
			"componentType":5126,
			"count":419,
			"type":"VEC3"
		},
		{
			"bufferView":2,
			"componentType":5126,
			"count":419,
			"type":"VEC2"
		},
		{
			"bufferView":3,
			"componentType":5123,
			"count":1386,
			"type":"SCALAR"
		},
		{
			"bufferView":4,
			"componentType":5126,
			"count":50,
			"max":[
				0.03485441952943802,
				2.561074733734131,
				0.14123055338859558
			],
			"min":[
				-0.15884369611740112,
				0.609177827835083,
				-0.05246756225824356
			],
			"type":"VEC3"
		},
		{
			"bufferView":5,
			"componentType":5126,
			"count":50,
			"type":"VEC3"
		},
		{
			"bufferView":6,
			"componentType":5126,
			"count":50,
			"type":"VEC2"
		},
		{
			"bufferView":7,
			"componentType":5123,
			"count":138,
			"type":"SCALAR"
		}
	],
	"bufferViews":[
		{
			"buffer":0,
			"byteLength":5028,
			"byteOffset":0,
			"target":34962
		},
		{
			"buffer":0,
			"byteLength":5028,
			"byteOffset":5028,
			"target":34962
		},
		{
			"buffer":0,
			"byteLength":3352,
			"byteOffset":10056,
			"target":34962
		},
		{
			"buffer":0,
			"byteLength":2772,
			"byteOffset":13408,
			"target":34963
		},
		{
			"buffer":0,
			"byteLength":600,
			"byteOffset":16180,
			"target":34962
		},
		{
			"buffer":0,
			"byteLength":600,
			"byteOffset":16780,
			"target":34962
		},
		{
			"buffer":0,
			"byteLength":400,
			"byteOffset":17380,
			"target":34962
		},
		{
			"buffer":0,
			"byteLength":276,
			"byteOffset":17780,
			"target":34963
		}
	],
	"buffers":[
		{
			"byteLength":18056,
			"uri":"poempel.bin"
		}
	]
}
