{
	"asset":{
		"generator":"Khronos glTF Blender I/O v4.1.63",
		"version":"2.0"
	},
	"scene":0,
	"scenes":[
		{
			"name":"Scene",
			"nodes":[
				0
			]
		}
	],
	"nodes":[
		{
			"mesh":0,
			"name":"Anemone"
		}
	],
	"materials":[
		{
			"doubleSided":true,
			"name":"Anemone",
			"pbrMetallicRoughness":{
				"baseColorTexture":{
					"index":0
				},
				"metallicFactor":0,
				"roughnessFactor":0.5
			}
		}
	],
	"meshes":[
		{
			"name":"Vert.044",
			"primitives":[
				{
					"attributes":{
						"POSITION":0,
						"NORMAL":1,
						"TEXCOORD_0":2
					},
					"indices":3,
					"material":0
				}
			]
		}
	],
	"textures":[
		{
			"sampler":0,
			"source":0
		}
	],
	"images":[
		{
			"mimeType":"image/png",
			"name":"Anemobe",
			"uri":"Anemobe.png"
		}
	],
	"accessors":[
		{
			"bufferView":0,
			"componentType":5126,
			"count":6994,
			"max":[
				1.4115923643112183,
				2.6661510467529297,
				1.3784515857696533
			],
			"min":[
				-1.370017409324646,
				0.005655407905578613,
				-1.4139270782470703
			],
			"type":"VEC3"
		},
		{
			"bufferView":1,
			"componentType":5126,
			"count":6994,
			"type":"VEC3"
		},
		{
			"bufferView":2,
			"componentType":5126,
			"count":6994,
			"type":"VEC2"
		},
		{
			"bufferView":3,
			"componentType":5123,
			"count":20874,
			"type":"SCALAR"
		}
	],
	"bufferViews":[
		{
			"buffer":0,
			"byteLength":83928,
			"byteOffset":0,
			"target":34962
		},
		{
			"buffer":0,
			"byteLength":83928,
			"byteOffset":83928,
			"target":34962
		},
		{
			"buffer":0,
			"byteLength":55952,
			"byteOffset":167856,
			"target":34962
		},
		{
			"buffer":0,
			"byteLength":41748,
			"byteOffset":223808,
			"target":34963
		}
	],
	"samplers":[
		{
			"magFilter":9729,
			"minFilter":9987
		}
	],
	"buffers":[
		{
			"byteLength":265556,
			"uri":"Anemone.bin"
		}
	]
}
