{
	"asset":{
		"generator":"Khronos glTF Blender I/O v4.1.63",
		"version":"2.0"
	},
	"scene":0,
	"scenes":[
		{
			"name":"Scene",
			"nodes":[
				0
			]
		}
	],
	"nodes":[
		{
			"mesh":0,
			"name":"Clownfisch.002"
		}
	],
	"materials":[
		{
			"doubleSided":true,
			"name":"Clownfisch_orange",
			"pbrMetallicRoughness":{
				"baseColorFactor":[
					0.8307672142982483,
					0.23073691129684448,
					0.08228161931037903,
					1
				],
				"metallicFactor":0,
				"roughnessFactor":0.5
			}
		},
		{
			"doubleSided":true,
			"name":"white",
			"pbrMetallicRoughness":{
				"baseColorFactor":[
					0.800000011920929,
					0.800000011920929,
					0.800000011920929,
					1
				],
				"metallicFactor":0,
				"roughnessFactor":0.5
			}
		},
		{
			"doubleSided":true,
			"name":"black",
			"pbrMetallicRoughness":{
				"baseColorFactor":[
					0,
					0,
					0,
					1
				],
				"metallicFactor":0
			}
		}
	],
	"meshes":[
		{
			"name":"Cube.004",
			"primitives":[
				{
					"attributes":{
						"POSITION":0,
						"NORMAL":1,
						"TEXCOORD_0":2
					},
					"indices":3,
					"material":0
				},
				{
					"attributes":{
						"POSITION":4,
						"NORMAL":5,
						"TEXCOORD_0":6
					},
					"indices":7,
					"material":1
				},
				{
					"attributes":{
						"POSITION":8,
						"NORMAL":9,
						"TEXCOORD_0":10
					},
					"indices":11,
					"material":2
				}
			]
		}
	],
	"accessors":[
		{
			"bufferView":0,
			"componentType":5126,
			"count":2864,
			"max":[
				1.4062881469726562,
				1.1726181507110596,
				1.1306580305099487
			],
			"min":[
				-1.4263936281204224,
				0.008479893207550049,
				-1.2250741720199585
			],
			"type":"VEC3"
		},
		{
			"bufferView":1,
			"componentType":5126,
			"count":2864,
			"type":"VEC3"
		},
		{
			"bufferView":2,
			"componentType":5126,
			"count":2864,
			"type":"VEC2"
		},
		{
			"bufferView":3,
			"componentType":5123,
			"count":9576,
			"type":"SCALAR"
		},
		{
			"bufferView":4,
			"componentType":5126,
			"count":1336,
			"max":[
				1.3473182916641235,
				1.1126720905303955,
				0.9641416072845459
			],
			"min":[
				-1.341326117515564,
				0.020895957946777344,
				-1.0585577487945557
			],
			"type":"VEC3"
		},
		{
			"bufferView":5,
			"componentType":5126,
			"count":1336,
			"type":"VEC3"
		},
		{
			"bufferView":6,
			"componentType":5126,
			"count":1336,
			"type":"VEC2"
		},
		{
			"bufferView":7,
			"componentType":5123,
			"count":4104,
			"type":"SCALAR"
		},
		{
			"bufferView":8,
			"componentType":5126,
			"count":1868,
			"max":[
				1.44570791721344,
				1.197567105293274,
				1.1431978940963745
			],
			"min":[
				-1.4212872982025146,
				0.07910330593585968,
				-1.2376140356063843
			],
			"type":"VEC3"
		},
		{
			"bufferView":9,
			"componentType":5126,
			"count":1868,
			"type":"VEC3"
		},
		{
			"bufferView":10,
			"componentType":5126,
			"count":1868,
			"type":"VEC2"
		},
		{
			"bufferView":11,
			"componentType":5123,
			"count":5904,
			"type":"SCALAR"
		}
	],
	"bufferViews":[
		{
			"buffer":0,
			"byteLength":34368,
			"byteOffset":0,
			"target":34962
		},
		{
			"buffer":0,
			"byteLength":34368,
			"byteOffset":34368,
			"target":34962
		},
		{
			"buffer":0,
			"byteLength":22912,
			"byteOffset":68736,
			"target":34962
		},
		{
			"buffer":0,
			"byteLength":19152,
			"byteOffset":91648,
			"target":34963
		},
		{
			"buffer":0,
			"byteLength":16032,
			"byteOffset":110800,
			"target":34962
		},
		{
			"buffer":0,
			"byteLength":16032,
			"byteOffset":126832,
			"target":34962
		},
		{
			"buffer":0,
			"byteLength":10688,
			"byteOffset":142864,
			"target":34962
		},
		{
			"buffer":0,
			"byteLength":8208,
			"byteOffset":153552,
			"target":34963
		},
		{
			"buffer":0,
			"byteLength":22416,
			"byteOffset":161760,
			"target":34962
		},
		{
			"buffer":0,
			"byteLength":22416,
			"byteOffset":184176,
			"target":34962
		},
		{
			"buffer":0,
			"byteLength":14944,
			"byteOffset":206592,
			"target":34962
		},
		{
			"buffer":0,
			"byteLength":11808,
			"byteOffset":221536,
			"target":34963
		}
	],
	"buffers":[
		{
			"byteLength":233344,
			"uri":"Clownfisch.bin"
		}
	]
}
