# Blender v3.4.1 OBJ File: 'lightning.blend'
# www.blender.org
mtllib lightning.mtl
o Plane
v -1.224638 0.020321 -0.068321
v 1.005656 0.047369 -0.159258
v -0.360718 18.344172 0.941002
v 0.264962 18.369690 -1.214866
v -0.426669 17.246683 0.429768
v -0.429225 16.144854 -0.095494
v -0.337360 15.007923 -0.367849
v -0.616625 13.881465 -0.032549
v -1.465150 12.770813 0.445498
v -2.277431 11.621284 0.482766
v -2.405321 10.411849 0.322371
v -2.493015 9.185575 0.298917
v -3.211265 8.039782 0.458078
v -4.301994 6.947127 0.741645
v -4.852797 5.836596 0.889904
v -4.287651 4.663394 0.742808
v -2.740393 3.504172 0.315588
v -1.226962 2.353336 -0.107862
v -0.995970 1.192188 -0.158615
v 1.372123 1.235420 -0.303965
v 1.536937 2.403296 -0.370009
v 1.040320 3.584174 -0.206426
v -0.358175 4.742819 0.202076
v -1.220905 5.865026 0.449619
v -0.737250 6.975871 0.325415
v 0.172100 8.058978 0.094258
v 0.457203 9.185487 0.037609
v 0.252008 10.362016 0.111323
v 0.752763 11.518892 -0.138756
v 1.650800 12.666698 -0.910854
v 1.943244 13.868994 -1.796194
v 1.564901 15.067924 -2.370831
v 0.874382 16.204010 -2.368851
v 0.375991 17.291748 -1.870382
v -2.043380 0.000000 2.043380
v 2.043380 0.000000 2.043380
v -2.043380 0.000000 -2.043380
v 2.043380 0.000000 -2.043380
v 0.000000 -0.060530 -1.000000
v 0.000000 1.273935 -2.615323
v 0.195090 -0.060530 -0.980785
v 0.510224 1.273935 -2.565071
v 0.382683 -0.060530 -0.923880
v 1.000841 1.273935 -2.416244
v 0.555570 -0.060530 -0.831470
v 1.452996 1.273935 -2.174562
v 0.707107 -0.060530 -0.707107
v 1.849313 1.273935 -1.849313
v 0.831470 -0.060530 -0.555570
v 2.174562 1.273935 -1.452996
v 0.923879 -0.060530 -0.382683
v 2.416244 1.273935 -1.000841
v 0.980785 -0.060530 -0.195090
v 2.565071 1.273935 -0.510224
v 1.000000 -0.060530 0.000000
v 2.615323 1.273935 0.000000
v 0.980785 -0.060530 0.195090
v 2.565071 1.273935 0.510224
v 0.923879 -0.060530 0.382683
v 2.416244 1.273935 1.000841
v 0.831470 -0.060530 0.555570
v 2.174562 1.273935 1.452996
v 0.707107 -0.060530 0.707107
v 1.849313 1.273935 1.849313
v 0.555570 -0.060530 0.831470
v 1.452996 1.273935 2.174562
v 0.382683 -0.060530 0.923880
v 1.000841 1.273935 2.416244
v 0.195090 -0.060530 0.980785
v 0.510224 1.273935 2.565071
v 0.000000 -0.060530 1.000000
v 0.000000 1.273935 2.615323
v -0.195090 -0.060530 0.980785
v -0.510224 1.273935 2.565071
v -0.382683 -0.060530 0.923880
v -1.000841 1.273935 2.416244
v -0.555570 -0.060530 0.831470
v -1.452996 1.273935 2.174562
v -0.707107 -0.060530 0.707107
v -1.849313 1.273935 1.849313
v -0.831470 -0.060530 0.555570
v -2.174562 1.273935 1.452996
v -0.923880 -0.060530 0.382683
v -2.416244 1.273935 1.000841
v -0.980785 -0.060530 0.195090
v -2.565071 1.273935 0.510224
v -1.000000 -0.060530 0.000000
v -2.615323 1.273935 0.000000
v -0.980785 -0.060530 -0.195090
v -2.565071 1.273935 -0.510224
v -0.923880 -0.060530 -0.382683
v -2.416244 1.273935 -1.000841
v -0.831470 -0.060530 -0.555570
v -2.174562 1.273935 -1.452996
v -0.707107 -0.060530 -0.707107
v -1.849313 1.273935 -1.849313
v -0.555570 -0.060530 -0.831470
v -1.452996 1.273935 -2.174562
v -0.382683 -0.060530 -0.923880
v -1.000841 1.273935 -2.416244
v -0.195090 -0.060530 -0.980785
v -0.510224 1.273935 -2.565071
vt 0.000000 0.937500
vt 1.000000 0.937500
vt 1.000000 1.000000
vt 0.000000 1.000000
vt 0.000000 0.000000
vt 1.000000 0.000000
vt 1.000000 0.062500
vt 0.000000 0.062500
vt 1.000000 0.125000
vt 0.000000 0.125000
vt 1.000000 0.187500
vt 0.000000 0.187500
vt 1.000000 0.250000
vt 0.000000 0.250000
vt 1.000000 0.312500
vt 0.000000 0.312500
vt 1.000000 0.375000
vt 0.000000 0.375000
vt 1.000000 0.437500
vt 0.000000 0.437500
vt 1.000000 0.500000
vt 0.000000 0.500000
vt 1.000000 0.562500
vt 0.000000 0.562500
vt 1.000000 0.625000
vt 0.000000 0.625000
vt 1.000000 0.687500
vt 0.000000 0.687500
vt 1.000000 0.750000
vt 0.000000 0.750000
vt 1.000000 0.812500
vt 0.000000 0.812500
vt 1.000000 0.875000
vt 0.000000 0.875000
vt 0.000000 0.000000
vt 1.000000 0.000000
vt 1.000000 1.000000
vt 0.000000 1.000000
vt 1.000000 0.000000
vt 0.968750 0.000000
vt 0.968750 1.000000
vt 1.000000 1.000000
vt 0.937500 0.000000
vt 0.937500 1.000000
vt 0.906250 0.000000
vt 0.906250 1.000000
vt 0.875000 0.000000
vt 0.875000 1.000000
vt 0.843750 0.000000
vt 0.843750 1.000000
vt 0.812500 0.000000
vt 0.812500 1.000000
vt 0.781250 0.000000
vt 0.781250 1.000000
vt 0.750000 0.000000
vt 0.750000 1.000000
vt 0.718750 0.000000
vt 0.718750 1.000000
vt 0.687500 0.000000
vt 0.687500 1.000000
vt 0.656250 0.000000
vt 0.656250 1.000000
vt 0.625000 0.000000
vt 0.625000 1.000000
vt 0.593750 0.000000
vt 0.593750 1.000000
vt 0.562500 0.000000
vt 0.562500 1.000000
vt 0.531250 0.000000
vt 0.531250 1.000000
vt 0.500000 0.000000
vt 0.500000 1.000000
vt 0.468750 0.000000
vt 0.468750 1.000000
vt 0.437500 0.000000
vt 0.437500 1.000000
vt 0.406250 0.000000
vt 0.406250 1.000000
vt 0.375000 0.000000
vt 0.375000 1.000000
vt 0.343750 0.000000
vt 0.343750 1.000000
vt 0.312500 0.000000
vt 0.312500 1.000000
vt 0.281250 0.000000
vt 0.281250 1.000000
vt 0.250000 0.000000
vt 0.250000 1.000000
vt 0.218750 0.000000
vt 0.218750 1.000000
vt 0.187500 0.000000
vt 0.187500 1.000000
vt 0.156250 0.000000
vt 0.156250 1.000000
vt 0.125000 0.000000
vt 0.125000 1.000000
vt 0.093750 0.000000
vt 0.093750 1.000000
vt 0.062500 0.000000
vt 0.062500 1.000000
vt 0.031250 0.000000
vt 0.031250 1.000000
vt 0.000000 0.000000
vt 0.000000 1.000000
vn 0.9343 -0.0848 0.3462
vn 0.9239 -0.0411 0.3803
vn 0.9434 -0.1414 0.3001
vn 0.0498 0.0865 0.9950
vn 0.0668 0.0414 0.9969
vn 0.0643 0.0481 0.9968
vn 0.0983 -0.0609 0.9933
vn 0.1059 -0.0889 0.9904
vn 0.1252 -0.1521 0.9804
vn 0.1343 -0.1692 0.9764
vn 0.1357 -0.1523 0.9790
vn 0.1316 -0.1108 0.9851
vn 0.1241 -0.0155 0.9921
vn 0.1239 -0.0122 0.9922
vn 0.1123 0.1105 0.9875
vn 0.1153 0.0848 0.9897
vn 0.1018 0.0771 0.9918
vn 0.1063 0.1082 0.9884
vn 0.0906 0.0063 0.9959
vn 0.0921 0.0151 0.9956
vn 0.1159 -0.0176 0.9931
vn 0.1130 -0.0193 0.9934
vn 0.2527 0.0681 0.9651
vn 0.2080 0.0393 0.9773
vn 0.4231 0.2184 0.8794
vn 0.3577 0.1527 0.9213
vn 0.5561 0.2939 0.7774
vn 0.5203 0.2824 0.8059
vn 0.6948 0.2608 0.6703
vn 0.6974 0.2591 0.6682
vn 0.8357 0.1305 0.5335
vn 0.8646 0.0881 0.4946
vn 0.0000 1.0000 0.0000
vn 0.0000 0.7709 0.6369
vn -0.1243 0.7709 0.6247
vn -0.2437 0.7709 0.5884
vn -0.3538 0.7709 0.5296
vn -0.4504 0.7709 0.4504
vn -0.5296 0.7709 0.3538
vn -0.5884 0.7709 0.2437
vn -0.6247 0.7709 0.1243
vn -0.6369 0.7709 0.0000
vn -0.6247 0.7709 -0.1243
vn -0.5884 0.7709 -0.2437
vn -0.5296 0.7709 -0.3538
vn -0.4504 0.7709 -0.4504
vn -0.3538 0.7709 -0.5296
vn -0.2437 0.7709 -0.5884
vn -0.1243 0.7709 -0.6247
vn 0.0000 0.7709 -0.6369
vn 0.1243 0.7709 -0.6247
vn 0.2437 0.7709 -0.5884
vn 0.3538 0.7709 -0.5296
vn 0.4504 0.7709 -0.4504
vn 0.5296 0.7709 -0.3538
vn 0.5884 0.7709 -0.2437
vn 0.6247 0.7709 -0.1243
vn 0.6369 0.7709 0.0000
vn 0.6247 0.7709 0.1243
vn 0.5884 0.7709 0.2437
vn 0.5296 0.7709 0.3538
vn 0.4504 0.7709 0.4504
vn 0.3538 0.7709 0.5296
vn 0.2437 0.7709 0.5884
vn 0.1243 0.7709 0.6247
usemtl Material.002
s 1
f 5/1/1 34/2/2 4/3/3 3/4/3
f 1/5/4 2/6/4 20/7/5 19/8/6
f 19/8/6 20/7/5 21/9/7 18/10/8
f 18/10/8 21/9/7 22/11/9 17/12/10
f 17/12/10 22/11/9 23/13/11 16/14/12
f 16/14/12 23/13/11 24/15/13 15/16/14
f 15/16/14 24/15/13 25/17/15 14/18/16
f 14/18/16 25/17/15 26/19/17 13/20/18
f 13/20/18 26/19/17 27/21/19 12/22/20
f 12/22/20 27/21/19 28/23/21 11/24/22
f 11/24/22 28/23/21 29/25/23 10/26/24
f 10/26/24 29/25/23 30/27/25 9/28/26
f 9/28/26 30/27/25 31/29/27 8/30/28
f 8/30/28 31/29/27 32/31/29 7/32/30
f 7/32/30 32/31/29 33/33/31 6/34/32
f 6/34/32 33/33/31 34/2/2 5/1/1
usemtl Material.003
f 35/35/33 36/36/33 38/37/33 37/38/33
usemtl Material.001
f 39/39/34 41/40/35 42/41/35 40/42/34
f 41/40/35 43/43/36 44/44/36 42/41/35
f 43/43/36 45/45/37 46/46/37 44/44/36
f 45/45/37 47/47/38 48/48/38 46/46/37
f 47/47/38 49/49/39 50/50/39 48/48/38
f 49/49/39 51/51/40 52/52/40 50/50/39
f 51/51/40 53/53/41 54/54/41 52/52/40
f 53/53/41 55/55/42 56/56/42 54/54/41
f 55/55/42 57/57/43 58/58/43 56/56/42
f 57/57/43 59/59/44 60/60/44 58/58/43
f 59/59/44 61/61/45 62/62/45 60/60/44
f 61/61/45 63/63/46 64/64/46 62/62/45
f 63/63/46 65/65/47 66/66/47 64/64/46
f 65/65/47 67/67/48 68/68/48 66/66/47
f 67/67/48 69/69/49 70/70/49 68/68/48
f 69/69/49 71/71/50 72/72/50 70/70/49
f 71/71/50 73/73/51 74/74/51 72/72/50
f 73/73/51 75/75/52 76/76/52 74/74/51
f 75/75/52 77/77/53 78/78/53 76/76/52
f 77/77/53 79/79/54 80/80/54 78/78/53
f 79/79/54 81/81/55 82/82/55 80/80/54
f 81/81/55 83/83/56 84/84/56 82/82/55
f 83/83/56 85/85/57 86/86/57 84/84/56
f 85/85/57 87/87/58 88/88/58 86/86/57
f 87/87/58 89/89/59 90/90/59 88/88/58
f 89/89/59 91/91/60 92/92/60 90/90/59
f 91/91/60 93/93/61 94/94/61 92/92/60
f 93/93/61 95/95/62 96/96/62 94/94/61
f 95/95/62 97/97/63 98/98/63 96/96/62
f 97/97/63 99/99/64 100/100/64 98/98/63
f 99/99/64 101/101/65 102/102/65 100/100/64
f 101/101/65 39/103/34 40/104/34 102/102/65
